<?xml version="1.0" encoding="UTF-8"?><svg id="Layer_1" xmlns="http://www.w3.org/2000/svg" xmlns:xlink="http://www.w3.org/1999/xlink" viewBox="0 0 186 54"><defs><style>.cls-1{fill:url(#linear-gradient);}.cls-2{fill:#ff5869;}.cls-3{fill:#7c7c7b;}.cls-4{fill:#2ed9c3;}.cls-5{fill:#b0b3b2;}</style><linearGradient id="linear-gradient" x1="6.76" y1="25.69" x2="43.59" y2="25.69" gradientUnits="userSpaceOnUse"><stop offset="0" stop-color="#32bbd7"/><stop offset=".25" stop-color="#4983b8"/><stop offset=".43" stop-color="#5860a6"/><stop offset=".53" stop-color="#5e539f"/><stop offset="1" stop-color="#223a89"/></linearGradient></defs><path class="cls-5" d="m130.45,21.36c-.08-.22-.21-.33-.4-.33s-.32.11-.4.33l-1.17,3.12v.03c-.04.08-.06.17-.06.23,0,.15.12.26.29.26.14,0,.24-.07.29-.22l.23-.63h1.66l.23.64c.05.15.15.22.29.22.16,0,.29-.11.29-.26,0-.06-.03-.14-.06-.23l-1.18-3.15Zm.24,2.25h-1.28l.64-1.79.64,1.79Z"/><path class="cls-5" d="m135.02,22.67h-.79c-.18,0-.29.11-.29.28s.11.28.29.28h.59v.16c0,.52-.35,1.07-1.02,1.07-.84,0-1.15-.78-1.15-1.45,0-.72.35-1.45,1.13-1.45.41,0,.62.16.8.28.11.08.2.14.31.14.16,0,.29-.13.29-.29,0-.26-.59-.67-1.36-.67-1.24,0-1.79,1-1.79,1.98s.54,1.99,1.72,1.99c1.1,0,1.68-.65,1.68-1.88,0-.32-.12-.45-.4-.45Z"/><path class="cls-5" d="m138.4,21.63c.18,0,.29-.11.29-.28s-.11-.29-.29-.29h-2c-.19,0-.31.12-.31.32v3.26c0,.2.12.32.31.32h2c.18,0,.29-.11.29-.28s-.11-.28-.29-.28h-1.72v-1.1h1.62c.18,0,.29-.11.29-.28s-.12-.28-.29-.28h-1.62v-1.1h1.72Z"/><path class="cls-5" d="m134.38,27.13c.18,0,.29-.11.29-.28s-.11-.28-.29-.28h-2c-.19,0-.32.12-.32.32v3.26c0,.2.12.32.32.32h2c.18,0,.29-.11.29-.28s-.11-.28-.29-.28h-1.72v-1.1h1.62c.18,0,.29-.11.29-.29s-.11-.28-.29-.28h-1.62v-1.1h1.72Z"/><path class="cls-5" d="m142.11,21.03c-.18,0-.3.13-.3.32v2.54l-1.8-2.58c-.13-.19-.21-.27-.38-.27-.19,0-.28.12-.28.34v3.31c0,.19.12.32.3.32s.3-.13.3-.32v-2.54l1.8,2.58c.13.19.21.27.38.27.19,0,.28-.12.28-.34v-3.31c0-.19-.12-.32-.3-.32Z"/><path class="cls-5" d="m144.72,25c.66,0,1.26-.28,1.26-.59,0-.17-.1-.28-.25-.28-.09,0-.18.05-.29.11-.17.1-.39.23-.72.23-.75,0-1.09-.75-1.09-1.45s.35-1.45,1.12-1.45c.34,0,.5.13.63.24.09.07.17.13.27.13.15,0,.26-.12.26-.29,0-.25-.49-.62-1.16-.62-1.2,0-1.75,1.03-1.75,1.98s.54,1.99,1.72,1.99Z"/><path class="cls-5" d="m147.2,24.68v-3.34c0-.19-.12-.32-.3-.32s-.3.13-.3.32v3.34c0,.19.12.32.3.32s.3-.13.3-.32Z"/><path class="cls-5" d="m148.17,25c.14,0,.24-.07.29-.22l.23-.63h1.66l.23.64c.05.15.15.22.29.22.17,0,.29-.11.29-.26,0-.06-.03-.14-.06-.22l-1.19-3.15c-.08-.22-.21-.33-.4-.33s-.32.11-.4.33l-1.17,3.12v.03c-.04.08-.07.17-.07.23,0,.15.12.26.29.26Zm.71-1.39l.64-1.79.64,1.79h-1.27Z"/><path class="cls-5" d="m156.79,24.66v-3.31c0-.19-.12-.32-.3-.32s-.3.13-.3.32v2.54l-1.8-2.58c-.13-.19-.21-.27-.38-.27s-.28.12-.28.34v3.31c0,.19.12.32.3.32s.3-.13.3-.32v-2.54l1.8,2.58c.13.19.21.27.38.27.18,0,.28-.12.28-.34Z"/><path class="cls-5" d="m160.38,25c.17,0,.29-.11.29-.26,0-.06-.03-.15-.06-.23l-1.18-3.15c-.08-.22-.21-.33-.4-.33s-.32.11-.4.33l-1.17,3.12v.03c-.04.08-.07.17-.07.23,0,.15.12.26.29.26.14,0,.24-.07.29-.22l.23-.63h1.66l.23.64c.05.15.15.22.29.22Zm-.71-1.39h-1.27l.64-1.79.64,1.79Z"/><path class="cls-5" d="m163.67,24.12c-.09,0-.18.05-.29.11-.17.1-.39.23-.72.23-.75,0-1.09-.75-1.09-1.45s.34-1.45,1.11-1.45c.34,0,.5.13.64.24.09.07.16.13.27.13.14,0,.26-.12.26-.29,0-.25-.49-.62-1.16-.62-1.2,0-1.74,1.03-1.74,1.98s.54,1.99,1.72,1.99c.66,0,1.26-.28,1.26-.59,0-.17-.1-.28-.25-.28Z"/><path class="cls-5" d="m164.91,21.03c-.18,0-.3.13-.3.32v3.34c0,.19.12.32.3.32s.3-.13.3-.32v-3.34c0-.19-.12-.32-.3-.32Z"/><path class="cls-5" d="m167.52,21.03c-1.13,0-1.72,1-1.72,1.98s.59,1.99,1.72,1.99,1.72-1,1.72-1.99-.59-1.98-1.72-1.98Zm0,3.43c-.8,0-1.09-.75-1.09-1.45s.28-1.45,1.09-1.45,1.09.75,1.09,1.45-.28,1.45-1.09,1.45Z"/><path class="cls-5" d="m172.66,21.03c-.18,0-.3.13-.3.32v2.54l-1.8-2.58c-.13-.19-.22-.27-.39-.27-.18,0-.28.12-.28.34v3.31c0,.19.12.32.3.32s.3-.13.3-.32v-2.54l1.8,2.58c.13.19.22.27.38.27.19,0,.28-.12.28-.34v-3.31c0-.19-.12-.32-.3-.32Z"/><path class="cls-5" d="m175.67,21.36c-.08-.22-.21-.33-.4-.33s-.32.11-.4.33l-1.17,3.12v.03c-.04.08-.07.17-.07.23,0,.15.12.26.29.26.14,0,.24-.07.29-.22l.23-.63h1.65l.23.64c.06.15.15.22.29.22.17,0,.29-.11.29-.26,0-.06-.03-.15-.06-.23l-1.18-3.15Zm.24,2.25h-1.27l.64-1.79.64,1.79Z"/><path class="cls-5" d="m179.71,24.4h-1.59v-3.06c0-.19-.12-.32-.3-.32s-.3.13-.3.32v3.3c0,.2.12.32.32.32h1.87c.18,0,.29-.11.29-.28s-.11-.28-.29-.28Z"/><path class="cls-5" d="m129.66,26.56h-.92c-.19,0-.31.12-.31.32v3.26c0,.2.12.32.31.32h.98c1.02,0,1.68-.78,1.68-1.97,0-.96-.54-1.93-1.74-1.93Zm1.11,1.93c0,.34-.08,1.44-1.14,1.44h-.6v-2.84h.57c.73,0,1.18.52,1.18,1.4Z"/><path class="cls-5" d="m137.99,26.53c-.18,0-.3.13-.3.32v3.34c0,.19.12.31.3.31s.3-.13.3-.31v-3.34c0-.19-.12-.32-.3-.32Z"/><path class="cls-5" d="m141.92,26.53c-.18,0-.3.13-.3.32v2.54l-1.8-2.58c-.13-.19-.21-.27-.39-.27-.18,0-.28.12-.28.34v3.31c0,.19.12.31.3.31s.3-.13.3-.31v-2.54l1.8,2.58c.13.19.21.27.38.27.19,0,.28-.11.28-.34v-3.31c0-.19-.12-.32-.3-.32Z"/><path class="cls-5" d="m144.4,26.53c-1.13,0-1.72,1-1.72,1.98s.59,1.98,1.72,1.98,1.72-1,1.72-1.98-.59-1.98-1.72-1.98Zm0,3.43c-.8,0-1.09-.75-1.09-1.45s.29-1.45,1.09-1.45,1.09.75,1.09,1.45-.29,1.45-1.09,1.45Z"/><path class="cls-5" d="m149.4,26.78c0-.12-.1-.26-.28-.26-.23,0-.29.17-.35.35l-.9,2.59-.9-2.59v-.02c-.07-.16-.12-.33-.35-.33-.17,0-.28.13-.28.26,0,.07.01.13.04.2l1.15,3.21c.05.14.12.3.33.3s.28-.15.33-.3l1.15-3.21c.03-.07.04-.13.04-.2Z"/><path class="cls-5" d="m151.06,26.86c-.08-.22-.21-.33-.4-.33s-.32.11-.4.33l-1.17,3.12v.03c-.04.08-.07.17-.07.22,0,.15.12.26.29.26.14,0,.24-.07.29-.22l.23-.64h1.66l.23.64c.05.14.15.22.29.22.16,0,.28-.11.28-.26,0-.06-.02-.14-.05-.22l-1.18-3.15Zm.24,2.25h-1.27l.64-1.79.64,1.79Z"/><path class="cls-5" d="m155.24,29.62c-.09,0-.17.05-.29.11-.17.1-.39.23-.73.23-.75,0-1.09-.75-1.09-1.45s.35-1.45,1.11-1.45c.34,0,.51.13.64.24.09.07.16.13.27.13.15,0,.26-.12.26-.29,0-.25-.49-.62-1.16-.62-1.2,0-1.74,1.03-1.74,1.98,0,.87.44,1.8,1.41,1.96l-.06.09c-.04.06-.06.12-.06.17,0,.07.06.17.22.17.07,0,.15,0,.17.03,0,.04,0,.08-.12.08-.05,0-.1-.01-.14-.02-.05-.01-.09-.02-.13-.02-.12,0-.18.11-.18.21,0,.15.18.25.45.25.42,0,.65-.19.65-.52,0-.14-.14-.35-.41-.36l.03-.05c.61-.03,1.14-.3,1.14-.59,0-.16-.1-.28-.25-.28Z"/><path class="cls-5" d="m157.95,26.86c-.08-.22-.21-.33-.4-.33s-.32.11-.4.33l-1.17,3.12v.03c-.04.08-.07.17-.07.22,0,.15.12.26.29.26.14,0,.24-.07.29-.22l.23-.64h1.65l.23.64c.05.14.15.22.29.22.16,0,.29-.11.29-.26,0-.06-.03-.14-.05-.22l-1.18-3.15Zm.24,2.25h-1.28l.64-1.79.64,1.79Z"/><path class="cls-5" d="m161.12,26.53c-1.13,0-1.72,1-1.72,1.98s.59,1.98,1.72,1.98,1.72-1,1.72-1.98-.59-1.98-1.72-1.98Zm0,3.43c-.8,0-1.09-.75-1.09-1.45s.29-1.45,1.09-1.45,1.09.75,1.09,1.45-.28,1.45-1.09,1.45Z"/><path class="cls-5" d="m136.8,20.86s.08,0,.14-.03l.48-.19.47.18c.06.03.12.03.14.03.15,0,.26-.11.26-.27,0-.11-.06-.2-.16-.25l-.69-.29s-.04,0-.05,0l-.69.29c-.1.05-.16.13-.16.25,0,.15.11.27.26.27Z"/><path class="cls-5" d="m157.12,26.3s.09-.05.15-.05c.09,0,.17.02.25.05.09.03.2.06.33.06.35,0,.56-.21.56-.4,0-.14-.12-.27-.24-.27-.07,0-.13.03-.18.06-.05.02-.09.05-.15.05-.09,0-.16-.02-.25-.05-.09-.03-.2-.06-.33-.06-.35,0-.56.21-.56.4,0,.14.11.27.24.27.07,0,.13-.03.18-.06Z"/><path class="cls-5" d="m112.33,22.1c0-.37-.3-.67-.67-.67s-.67.3-.67.67v5.86l-5.51-6.33h0c-.12-.13-.3-.22-.5-.22-.37,0-.68.3-.68.68h0v6.66s0,.1-.05.11c-.09.03-.13-.06-.14-.08l-3.45-7.02-.1-.17c-.18-.2-.5-.26-.75-.16,0,0-.02.01-.03.02-.16.07-.3.19-.37.36l-3.71,7.49s-.05.09-.07.13c0,.01,0,.02,0,.04h0s0,.02,0,.02c-.11.34.06.72.4.86.08.03.17.05.26.05,0,0,0,0,0,0h3.66s0,0,0,0c.28,0,.53-.17.63-.42.07-.17.07-.35,0-.51-.07-.17-.2-.3-.37-.37-.09-.04-.19-.05-.29-.04h-2.59l2.71-5.49,2.98,6.04c.06.14.14.26.23.37.22.26.63.45,1.01.45.76,0,1.38-.62,1.38-1.37v-5.17l5.42,6.23c.12.2.34.33.58.33.38,0,.69-.31.69-.69v-7.63Z"/><path class="cls-5" d="m114.99,22.1c0-.37-.3-.67-.67-.67s-.67.3-.67.67v7.72h0c0,.37.3.67.67.67s.67-.3.67-.67h0v-7.72Z"/><path class="cls-5" d="m116.87,23.1c.46,0,.84-.37.84-.84s-.37-.84-.84-.84-.84.38-.84.84.38.84.84.84Z"/><path class="cls-4" d="m121.76,17.14c-2.94-5.2-8.26-8.48-14.23-8.77-2.62-.13-5.19.33-7.63,1.37-8.12,3.45-12.35,12.42-9.84,20.86.13.42.52.72.97.72.1,0,.19-.01.29-.04.53-.16.83-.72.68-1.25-2.21-7.46,1.53-15.39,8.7-18.43,2.15-.91,4.43-1.32,6.74-1.21,5.27.25,9.97,3.15,12.57,7.75.17.3.48.49.83.51h.05c.18,0,.35-.05.48-.13.24-.13.41-.35.49-.61.07-.26.03-.53-.1-.76Z"/><path class="cls-2" d="m123.32,20.84c-.13-.41-.49-.7-.91-.72h-.06c-.09,0-.18.01-.28.04-.25.07-.47.24-.6.49-.13.24-.15.51-.08.76,2.17,7.44-1.57,15.34-8.72,18.37-1.91.81-3.92,1.23-5.98,1.23h0c-.25,0-.5,0-.75-.02-5.25-.26-9.94-3.13-12.55-7.68-.17-.3-.48-.49-.82-.51h-.05c-.14,0-.28.03-.42.09-.04.02-.08.04-.09.04-.23.13-.4.35-.47.6-.07.26-.04.53.09.77,2.95,5.15,8.26,8.4,14.2,8.69.29.01.58.02.87.02,2.32,0,4.59-.47,6.75-1.39,8.08-3.43,12.32-12.37,9.86-20.8Z"/><path class="cls-3" d="m34.13,23.11c.47,0,.85-.38.85-.85s-.38-.85-.85-.85-.85.38-.85.85.38.85.85.85Z"/><path class="cls-3" d="m28.74,22.33c-.06-.34-.19-.58-.38-.72-.18-.14-.39-.2-.62-.2-.24,0-.44.05-.59.15-.15.1-.27.27-.34.51l-1.64,5.53-1.64-5.54c-.08-.23-.19-.4-.34-.5-.15-.1-.35-.15-.59-.15-.23,0-.44.07-.62.2-.19.14-.31.38-.38.72l-1.15,6.66-.04.26c-.01.08-.02.16-.02.23,0,.2.06.36.17.49.12.14.28.21.5.21.16,0,.31-.04.45-.11.16-.09.26-.25.29-.49l.87-5.93,1.8,5.98c.07.22.17.36.3.44.24.14.57.14.81,0,.13-.08.23-.22.3-.44l1.8-5.98.87,5.93c.03.24.13.4.29.49.13.07.28.11.45.11.21,0,.38-.07.5-.21.11-.13.17-.3.17-.49,0-.07,0-.15-.02-.23l-1.19-6.93Z"/><path class="cls-3" d="m32.12,21.6h0c-.13-.13-.3-.2-.51-.2s-.38.07-.51.2c-.13.13-.19.31-.19.53v7.34c0,.22.06.39.19.53.13.13.3.2.51.2s.38-.07.51-.2c.13-.13.19-.31.19-.53v-7.34c0-.22-.06-.39-.19-.53Z"/><path class="cls-1" d="m42.92,20.9c-.12-.4-.48-.68-.88-.69h-.06c-.09,0-.18.01-.27.04-.25.07-.45.24-.59.47-.12.23-.15.49-.08.74,2.11,7.21-1.53,14.87-8.45,17.81-1.85.79-3.8,1.19-5.8,1.19-.24,0-.49,0-.73-.02-5.09-.25-9.64-3.03-12.16-7.44-.16-.29-.46-.48-.8-.49h-.04c-.14,0-.27.03-.4.09-.03.02-.07.03-.08.04-.22.13-.39.34-.46.59-.07.25-.04.51.09.75.7,1.23,1.54,2.34,2.49,3.33l-.7.7c-.29-.17-.63-.2-.94-.1-2.71-3.02-4.45-6.92-4.7-11.18.32-.14.56-.42.65-.76h.97c.03,1.47.25,2.95.69,4.42.12.41.51.7.94.7.09,0,.19-.01.28-.04.51-.16.8-.7.65-1.21-2.15-7.23,1.48-14.91,8.43-17.87,2.09-.89,4.29-1.28,6.54-1.17,5.11.25,9.67,3.06,12.19,7.51.16.29.46.48.8.49h.05c.17,0,.34-.04.47-.12.23-.13.4-.34.47-.6.07-.25.03-.51-.09-.74-2.85-5.04-8.01-8.22-13.79-8.5-.15,0-.31,0-.46,0v-.8c.49-.13.86-.57.86-1.11,0-.64-.52-1.15-1.15-1.15-.46,0-.86.28-1.04.67-4.43.21-8.6,1.92-11.91,4.89-.43-.22-.97-.15-1.33.21-.36.36-.43.9-.21,1.33-2.92,3.27-4.61,7.36-4.85,11.72-.44.16-.76.58-.76,1.08s.32.92.76,1.08c.24,4.37,1.94,8.48,4.87,11.75-.21.43-.14.96.22,1.32.36.36.89.43,1.32.21,3.38,3.02,7.67,4.75,12.3,4.89.16.44.58.75,1.08.75.64,0,1.15-.52,1.15-1.15s-.52-1.15-1.15-1.15c-.48,0-.89.29-1.06.71-4.49-.14-8.59-1.9-11.73-4.71.1-.31.07-.65-.1-.94l.71-.71c2.89,2.79,6.71,4.49,10.86,4.69.28.01.56.02.84.02,2.25,0,4.45-.45,6.55-1.34,7.83-3.33,11.94-11.99,9.56-20.16ZM26.86,6.37c.29,0,.52.23.52.52s-.23.52-.52.52-.52-.23-.52-.52.23-.52.52-.52Zm-12.39,5.56c3.14-2.82,7.08-4.46,11.3-4.68.12.36.42.64.8.74v.8c-2.18.03-4.31.48-6.35,1.34-1.97.84-3.71,2.02-5.17,3.44l-.67-.67c.17-.3.2-.65.09-.97Zm-1.44.02c.2-.2.53-.2.73,0,.2.2.2.53,0,.73-.2.2-.53.2-.73,0-.2-.2-.2-.53,0-.73Zm-.03,1.44c.32.11.67.09.97-.09l.67.67c-2.92,3.05-4.6,7.11-4.66,11.37h-.97c-.09-.34-.33-.62-.65-.76.23-4.16,1.85-8.07,4.64-11.19Zm-5.09,12.76c-.29,0-.52-.23-.52-.52s.23-.52.52-.52.52.23.52.52-.23.52-.52.52Zm5.88,13.17c-.2.2-.53.2-.73,0-.2-.2-.2-.53,0-.73.2-.2.53-.2.73,0,.2.2.2.53,0,.73Zm13.51,4.63c.29,0,.52.23.52.52s-.23.52-.52.52-.52-.23-.52-.52.23-.52.52-.52Z"/><path class="cls-3" d="m49.72,25.33c.1.06.24.06.33,0,.05-.03.09-.09.12-.18l.85-2.82.41,2.8c.01.1.05.16.11.2.06.03.12.05.19.05.09,0,.15-.03.2-.08.05-.05.07-.12.07-.2,0-.03,0-.06,0-.1l-.54-3.12c-.03-.15-.08-.25-.16-.31-.08-.06-.16-.09-.26-.09-.1,0-.19.02-.25.06-.06.04-.11.11-.14.21l-.77,2.59-.77-2.59c-.03-.1-.08-.17-.14-.21-.06-.04-.14-.06-.25-.06-.1,0-.18.03-.26.09-.08.06-.13.16-.16.31l-.52,3-.02.12s0,.07,0,.1c0,.08.02.15.07.2.05.06.11.08.2.08.07,0,.13-.02.19-.05.06-.03.1-.1.11-.2l.41-2.8.85,2.82c.03.09.07.15.12.18Z"/><path class="cls-3" d="m52.81,25.38c.09,0,.15-.03.21-.08.05-.05.08-.13.08-.22v-3.31c0-.09-.03-.16-.08-.22-.05-.05-.12-.08-.21-.08s-.15.03-.21.08c-.05.05-.08.13-.08.22v3.31c0,.09.03.16.08.22.05.05.12.08.21.08Z"/><path class="cls-3" d="m55.93,24.61c.06-.15.09-.3.09-.46,0-.22-.05-.4-.14-.53-.09-.13-.21-.24-.35-.32-.14-.08-.29-.15-.45-.2-.15-.05-.3-.1-.43-.16-.13-.05-.23-.12-.32-.19-.08-.07-.12-.16-.12-.28,0-.14.05-.26.15-.34.1-.09.24-.13.4-.13.11,0,.2.01.27.03.07.02.13.05.18.08.05.03.1.06.14.09.05.03.1.05.17.05.07,0,.14-.03.18-.08.05-.05.07-.11.07-.18,0-.07-.03-.14-.09-.21-.06-.06-.13-.11-.23-.15-.09-.04-.19-.07-.31-.1h0c-.29-.06-.6-.05-.84.06-.14.06-.27.14-.37.24-.1.1-.18.21-.23.32-.05.12-.08.24-.08.35,0,.21.05.39.14.51.09.13.21.23.35.31.14.08.29.14.44.19.15.05.3.1.43.16.13.05.23.12.32.2.08.07.12.18.12.31,0,.1-.02.19-.05.27-.03.08-.08.16-.14.22-.06.06-.14.12-.23.15-.09.04-.19.06-.31.06s-.22-.01-.3-.04c-.09-.03-.16-.06-.23-.1-.07-.04-.13-.07-.18-.1-.06-.04-.11-.05-.16-.05-.11,0-.16.05-.19.1-.04.06-.06.12-.06.2,0,.08.04.16.11.22.07.06.15.11.26.15.1.04.22.08.35.1.13.02.26.04.39.04.21,0,.4-.03.57-.1.17-.07.31-.16.42-.27.11-.11.2-.24.26-.39Z"/><path class="cls-3" d="m58.75,24.15c0-.22-.05-.4-.14-.53-.09-.13-.21-.24-.35-.32-.14-.08-.29-.15-.45-.2-.15-.05-.3-.1-.43-.16-.13-.05-.23-.12-.32-.19-.08-.07-.12-.16-.12-.28,0-.14.05-.26.15-.34.1-.09.24-.13.4-.13.11,0,.2.01.27.03.07.02.13.05.18.08.05.03.1.06.14.09.05.03.1.05.17.05.07,0,.14-.03.18-.08.05-.05.07-.11.07-.18,0-.07-.03-.14-.09-.21-.06-.06-.13-.11-.23-.15-.09-.04-.19-.07-.31-.1h0c-.29-.06-.6-.05-.84.06-.14.06-.27.14-.37.24-.1.1-.18.21-.23.32-.05.12-.08.24-.08.35,0,.21.05.39.14.51.09.13.21.23.35.31.14.08.29.14.44.19.15.05.3.1.43.16.13.05.23.12.32.2.08.07.12.18.12.31,0,.1-.02.19-.05.27-.03.08-.08.16-.14.22-.06.06-.14.12-.23.15-.09.04-.19.06-.31.06s-.22-.01-.3-.04c-.09-.03-.16-.06-.23-.1-.07-.04-.13-.07-.18-.1-.06-.04-.11-.05-.16-.05-.11,0-.16.05-.19.1-.04.06-.06.12-.06.2,0,.08.04.16.11.22.07.06.15.11.26.15.1.04.22.08.35.1.13.02.26.04.39.04.21,0,.4-.03.57-.1.17-.07.31-.16.42-.27.11-.11.2-.24.26-.39.06-.15.09-.3.09-.46Z"/><path class="cls-3" d="m59.25,25.38c.08,0,.14-.02.18-.06.04-.04.07-.08.09-.14l.23-.62h1.69l.23.62c.02.06.05.1.09.14.04.04.11.06.18.06.07,0,.14-.02.19-.06.06-.04.09-.11.09-.18,0-.04,0-.08-.03-.14-.02-.05-.03-.08-.04-.11l-1.18-3.09c-.03-.09-.07-.16-.13-.22-.06-.06-.15-.1-.25-.1s-.19.03-.25.1c-.06.06-.1.13-.13.22l-1.18,3.09s-.02.06-.04.11c-.02.06-.03.1-.03.14,0,.07.03.14.09.18.05.04.12.06.19.06Zm.69-1.33l.66-1.87.66,1.87h-1.33Z"/><path class="cls-3" d="m62.94,24.77c.14.18.33.33.54.44.21.11.46.17.74.17s.53-.06.74-.17c.21-.11.4-.26.54-.44.14-.18.25-.39.33-.62.07-.23.11-.48.11-.72s-.04-.49-.11-.72c-.07-.23-.18-.44-.33-.63-.14-.18-.33-.33-.54-.44-.21-.11-.46-.17-.74-.17s-.53.06-.74.17c-.21.11-.39.26-.54.44-.14.18-.25.39-.33.63-.07.23-.11.47-.11.72s.04.49.11.72c.07.23.18.44.33.62Zm1.28-2.79c.2,0,.38.04.52.13.14.08.26.2.34.33.09.14.15.29.19.46.04.17.06.35.06.52s-.02.35-.06.52c-.04.17-.1.33-.19.46-.09.14-.2.25-.34.33-.14.08-.31.13-.52.13s-.38-.04-.52-.13c-.14-.08-.26-.2-.34-.33-.09-.14-.15-.29-.19-.46-.04-.17-.06-.35-.06-.52s.02-.35.06-.52c.04-.17.1-.33.19-.46.09-.14.2-.25.34-.33.14-.08.31-.13.52-.13Z"/><path class="cls-3" d="m48.2,26.82c-.08,0-.15.03-.21.08-.05.05-.08.13-.08.22v3.31c0,.09.03.16.08.22.05.05.12.08.21.08s.15-.03.21-.08c.05-.05.08-.13.08-.22v-3.31c0-.09-.03-.16-.08-.22-.05-.05-.12-.08-.21-.08Z"/><path class="cls-3" d="m51.93,26.82c-.08,0-.15.03-.21.08-.05.05-.08.13-.08.22v2.56l-1.84-2.6c-.07-.1-.12-.16-.17-.2-.05-.04-.12-.06-.2-.06-.1,0-.26.04-.26.32v3.28c0,.09.03.16.08.22.05.05.12.08.21.08s.15-.03.21-.08c.05-.05.08-.13.08-.22v-2.56l1.84,2.6c.07.1.12.16.17.2.05.04.12.06.2.06.1,0,.26-.04.26-.32v-3.28c0-.09-.03-.16-.08-.22-.05-.05-.12-.08-.21-.08Z"/><path class="cls-3" d="m54.76,26.82h-1.89c-.08,0-.15.02-.2.07-.05.05-.08.11-.08.2s.03.16.08.2c.05.04.12.07.2.07h.66v3.06c0,.09.03.16.08.22.05.05.12.08.21.08s.15-.03.21-.08c.05-.05.08-.13.08-.22v-3.06h.66c.08,0,.15-.02.2-.07.05-.05.08-.11.08-.2s-.03-.16-.08-.2c-.05-.04-.12-.07-.2-.07Z"/><path class="cls-3" d="m59.68,29.03h.09c.15,0,.28-.03.41-.08.13-.04.25-.11.35-.2.1-.09.18-.21.24-.35.06-.14.09-.31.09-.51,0-.16-.04-.31-.1-.45-.07-.13-.16-.24-.27-.34-.11-.09-.24-.17-.39-.22-.14-.05-.3-.08-.45-.08h-.87c-.1,0-.18.03-.23.09-.05.06-.07.13-.07.21v3.3c0,.09.03.16.08.22.05.05.12.08.21.08s.15-.03.21-.08c.05-.05.08-.13.08-.22v-1.3l1.36,1.48s.06.06.1.08c.04.03.09.04.15.04.07,0,.13-.02.19-.06.05-.05.08-.1.08-.16,0-.09-.04-.17-.1-.24l-1.13-1.22Zm-.05-.45h-.59v-1.25h.58c.1,0,.2.02.28.05.08.03.15.08.21.13.06.05.1.12.13.19.03.07.05.15.05.23,0,.23-.05.4-.15.5s-.27.15-.5.15Z"/><path class="cls-3" d="m63.03,26.82h-1.33c-.1,0-.18.03-.23.09-.05.06-.07.13-.07.21v3.3c0,.09.03.16.08.22.05.05.12.08.21.08s.15-.03.21-.08c.05-.05.08-.13.08-.22v-1.38h.94c.08,0,.15-.02.2-.07.05-.05.08-.11.08-.2s-.03-.16-.08-.2c-.05-.04-.12-.07-.2-.07h-.94v-1.14h1.06c.08,0,.15-.02.2-.07.05-.05.08-.11.08-.2s-.03-.16-.08-.2c-.05-.04-.12-.07-.2-.07Z"/><path class="cls-3" d="m66.66,30.23l-1.18-3.09c-.03-.09-.07-.16-.13-.22-.06-.06-.15-.1-.25-.1s-.19.03-.25.1c-.06.06-.1.13-.13.22l-1.18,3.09s-.02.06-.04.11c-.02.06-.03.1-.03.14,0,.07.03.14.09.18.05.04.12.06.19.06.08,0,.14-.02.18-.06.04-.04.07-.08.09-.14l.23-.62h1.69l.23.62c.02.06.05.1.09.14.04.04.11.06.18.06.07,0,.14-.02.19-.06.06-.04.09-.11.09-.18,0-.04,0-.08-.03-.14-.02-.05-.03-.08-.04-.11Zm-.9-.84h-1.33l.66-1.87.66,1.87Z"/><path class="cls-3" d="m69.55,29.93c-.06.03-.13.07-.21.12-.08.04-.17.08-.27.11-.1.03-.22.05-.35.05-.19,0-.36-.04-.5-.13-.14-.08-.25-.2-.34-.33-.09-.14-.16-.29-.2-.46h0c-.04-.17-.07-.35-.07-.52s.02-.35.07-.52c.04-.17.11-.33.2-.46.09-.14.21-.25.35-.33.14-.08.32-.13.52-.13.14,0,.25.02.34.05.09.04.16.08.22.12.06.05.12.09.16.13.12.1.28.09.36-.02.04-.05.06-.12.06-.19,0-.06-.03-.13-.09-.2-.05-.07-.13-.13-.23-.19-.1-.06-.22-.11-.36-.15-.14-.04-.3-.06-.47-.06-.29,0-.54.06-.76.17-.22.11-.4.26-.54.44-.14.18-.25.39-.33.63-.07.23-.11.47-.11.72s.04.49.11.72c.07.23.18.44.32.62.14.18.32.33.54.44.21.11.47.17.75.17.17,0,.33-.02.48-.05.15-.03.28-.08.39-.13.12-.05.21-.11.27-.18.07-.07.11-.15.11-.22,0-.08-.02-.14-.06-.19-.08-.09-.22-.11-.36-.02Z"/><path class="cls-3" d="m60,21.31c.07,0,.12-.03.17-.05.04-.03.08-.05.14-.05.09,0,.16.02.24.04.09.03.19.06.32.06.34,0,.54-.2.54-.39,0-.14-.11-.26-.24-.26-.07,0-.13.03-.18.06-.05.02-.08.05-.14.05-.09,0-.16-.02-.24-.05-.09-.03-.19-.06-.32-.06-.34,0-.54.2-.54.39,0,.14.11.27.24.27Z"/><path class="cls-3" d="m57.66,27.38c.17,0,.28-.11.28-.27s-.11-.28-.28-.28h-1.94c-.19,0-.3.12-.3.31v3.16c0,.19.12.31.3.31h1.94c.17,0,.28-.11.28-.28s-.11-.27-.28-.27h-1.66v-1.07h1.57c.17,0,.29-.11.29-.27s-.11-.27-.29-.27h-1.57v-1.07h1.66Z"/><path class="cls-3" d="m72.72,30.06h-1.66v-1.07h1.57c.17,0,.29-.11.29-.27s-.11-.27-.29-.27h-1.57v-1.07h1.66c.17,0,.28-.11.28-.27s-.11-.28-.28-.28h-1.94c-.19,0-.3.12-.3.31v3.16c0,.19.12.31.3.31h1.94c.17,0,.28-.11.28-.28s-.11-.27-.28-.27Z"/></svg>